<?xml version="1.0" encoding="UTF-8" standalone="no"?>
<!-- Created with Inkscape (http://www.inkscape.org/) -->

<svg
   xmlns:dc="http://purl.org/dc/elements/1.1/"
   xmlns:cc="http://creativecommons.org/ns#"
   xmlns:rdf="http://www.w3.org/1999/02/22-rdf-syntax-ns#"
   xmlns:svg="http://www.w3.org/2000/svg"
   xmlns="http://www.w3.org/2000/svg"
   xmlns:xlink="http://www.w3.org/1999/xlink"
   xmlns:sodipodi="http://sodipodi.sourceforge.net/DTD/sodipodi-0.dtd"
   xmlns:inkscape="http://www.inkscape.org/namespaces/inkscape"
   width="24"
   height="24"
   id="svg16550"
   version="1.1"
   inkscape:version="0.47 r22583"
   sodipodi:docname="stepicons-24.svg"
   inkscape:export-filename="/home/benjamin/programs/tilem2/misc/step-over-24.png"
   inkscape:export-xdpi="90"
   inkscape:export-ydpi="90">
  <defs
     id="defs16552">
    <inkscape:perspective
       sodipodi:type="inkscape:persp3d"
       inkscape:vp_x="0 : 12 : 1"
       inkscape:vp_y="0 : 1000 : 0"
       inkscape:vp_z="24 : 12 : 1"
       inkscape:persp3d-origin="12 : 8 : 1"
       id="perspective60" />
    <linearGradient
       id="linearGradient19570">
      <stop
         style="stop-color:#ffffff;stop-opacity:1;"
         offset="0"
         id="stop19572" />
      <stop
         style="stop-color:#ffffff;stop-opacity:0;"
         offset="1"
         id="stop19574" />
    </linearGradient>
    <linearGradient
       id="linearGradient5777">
      <stop
         style="stop-color:#ffffff;stop-opacity:0;"
         offset="0"
         id="stop5779" />
      <stop
         style="stop-color:#ffffff;stop-opacity:0.49803922;"
         offset="1"
         id="stop5781" />
    </linearGradient>
    <linearGradient
       id="linearGradient14417-2-6-4">
      <stop
         style="stop-color:#729fcf;stop-opacity:1;"
         offset="0"
         id="stop14419-0-1-9" />
      <stop
         style="stop-color:#204a87;stop-opacity:1;"
         offset="1"
         id="stop14421-6-1-9" />
    </linearGradient>
    <linearGradient
       id="linearGradient14417-2-6">
      <stop
         style="stop-color:#ad7fa8;stop-opacity:1;"
         offset="0"
         id="stop14419-0-1" />
      <stop
         style="stop-color:#5c3566;stop-opacity:1;"
         offset="1"
         id="stop14421-6-1" />
    </linearGradient>
    <linearGradient
       id="linearGradient14417-2">
      <stop
         style="stop-color:#73d216;stop-opacity:1;"
         offset="0"
         id="stop14419-0" />
      <stop
         style="stop-color:#4e9a06;stop-opacity:1;"
         offset="1"
         id="stop14421-6" />
    </linearGradient>
    <linearGradient
       id="linearGradient3743-1-3-0">
      <stop
         style="stop-color:#d3d7cf;stop-opacity:1;"
         offset="0"
         id="stop3745-9-8-3" />
      <stop
         style="stop-color:#555753;stop-opacity:1;"
         offset="1"
         id="stop3747-6-73-03" />
    </linearGradient>
    <linearGradient
       inkscape:collect="always"
       xlink:href="#linearGradient3743-1-3-0"
       id="linearGradient6950"
       gradientUnits="userSpaceOnUse"
       gradientTransform="translate(0,-8)"
       x1="17"
       y1="2"
       x2="19"
       y2="10" />
    <linearGradient
       inkscape:collect="always"
       xlink:href="#linearGradient3743-1-3-0"
       id="linearGradient6969"
       gradientUnits="userSpaceOnUse"
       gradientTransform="translate(0,-8)"
       x1="17"
       y1="17"
       x2="19"
       y2="25" />
    <linearGradient
       inkscape:collect="always"
       xlink:href="#linearGradient14417-2-6"
       id="linearGradient4301"
       gradientUnits="userSpaceOnUse"
       x1="8.5"
       y1="4.3125"
       x2="16"
       y2="11.0625" />
    <linearGradient
       inkscape:collect="always"
       xlink:href="#linearGradient14417-2"
       id="linearGradient5798"
       gradientUnits="userSpaceOnUse"
       x1="9"
       y1="-2.375"
       x2="3.625"
       y2="8.5" />
    <linearGradient
       inkscape:collect="always"
       xlink:href="#linearGradient3743-1-3-0"
       id="linearGradient19598"
       x1="17"
       y1="0"
       x2="19"
       y2="11"
       gradientUnits="userSpaceOnUse" />
    <linearGradient
       inkscape:collect="always"
       xlink:href="#linearGradient3743-1-3-0"
       id="linearGradient19608"
       x1="18"
       y1="13"
       x2="18"
       y2="10.5"
       gradientUnits="userSpaceOnUse" />
    <linearGradient
       inkscape:collect="always"
       xlink:href="#linearGradient14417-2-6-4"
       id="linearGradient19628"
       gradientUnits="userSpaceOnUse"
       x1="5.125"
       y1="5"
       x2="12.5"
       y2="6.3125" />
    <linearGradient
       inkscape:collect="always"
       xlink:href="#linearGradient19570"
       id="linearGradient19636"
       x1="-1.5"
       y1="4"
       x2="9"
       y2="4"
       gradientUnits="userSpaceOnUse" />
    <linearGradient
       inkscape:collect="always"
       xlink:href="#linearGradient19570"
       id="linearGradient19638"
       gradientUnits="userSpaceOnUse"
       x1="-0.83650517"
       y1="8.1351967"
       x2="5.7805586"
       y2="8.1351967" />
    <radialGradient
       inkscape:collect="always"
       xlink:href="#linearGradient5777"
       id="radialGradient22298"
       gradientUnits="userSpaceOnUse"
       gradientTransform="matrix(-0.85844211,-0.88068425,1.5254682,-1.4869414,-4.0810409,47.152195)"
       cx="10.991496"
       cy="15.354539"
       fx="10.991496"
       fy="15.354539"
       r="5.25" />
    <linearGradient
       inkscape:collect="always"
       xlink:href="#linearGradient19570"
       id="linearGradient22300"
       gradientUnits="userSpaceOnUse"
       x1="9.5"
       y1="5.5"
       x2="9.5"
       y2="14" />
  </defs>
  <sodipodi:namedview
     id="base"
     pagecolor="#ffffff"
     bordercolor="#666666"
     borderopacity="1.0"
     inkscape:pageopacity="0.0"
     inkscape:pageshadow="2"
     inkscape:zoom="16"
     inkscape:cx="6.6424946"
     inkscape:cy="9.8308889"
     inkscape:current-layer="layer1"
     showgrid="false"
     inkscape:grid-bbox="true"
     inkscape:document-units="px"
     inkscape:snap-global="true"
     inkscape:window-width="1278"
     inkscape:window-height="993"
     inkscape:window-x="0"
     inkscape:window-y="0"
     inkscape:window-maximized="0"
     showguides="true"
     inkscape:guide-bbox="true">
    <inkscape:grid
       type="xygrid"
       id="grid16560"
       empspacing="2"
       visible="true"
       enabled="true"
       snapvisiblegridlinesonly="true"
       spacingx="0.5px"
       spacingy="0.5px" />
  </sodipodi:namedview>
  <metadata
     id="metadata16555">
    <rdf:RDF>
      <cc:Work
         rdf:about="">
        <dc:format>image/svg+xml</dc:format>
        <dc:type
           rdf:resource="http://purl.org/dc/dcmitype/StillImage" />
        <dc:title />
      </cc:Work>
    </rdf:RDF>
  </metadata>
  <g
     id="layer1"
     inkscape:label="Layer 1"
     inkscape:groupmode="layer"
     transform="translate(0,8)">
    <g
       id="enter-arrow">
      <path
         sodipodi:nodetypes="ccccccccccc"
         id="path13783"
         d="m 1.5,-5.5 6,0 0,7 3,0 0,-3 6,6 -6,6 0,-3 -4.5,0 C 3.5,7.5 1.5,5.5 1.5,3 l 0,-8.5 z"
         style="fill:url(#linearGradient5798);fill-opacity:1;fill-rule:evenodd;stroke:#4e9a06;stroke-width:1;stroke-linecap:round;stroke-linejoin:round;stroke-miterlimit:4;stroke-opacity:1;stroke-dasharray:none;stroke-dashoffset:0" />
      <path
         sodipodi:nodetypes="cccccccccccc"
         id="path13783-5"
         d="m 2.5,-4.5 4,0 0,6 c 0,0.5 0.5,1 1,1 l 4,0 L 11.5,1 15,4.5 11.5,8 11.5,6.5 6,6.5 C 4,6.5 2.5,5 2.5,3 l 0,-7.5 z"
         style="fill:none;fill-opacity:1;stroke:#ffffff;stroke-opacity:0.25098039000000000" />
      <path
         sodipodi:nodetypes="ccssssc"
         transform="translate(0,-8)"
         id="path19548"
         d="M 2,11.5 C 1.9441214,10.997093 2.014329,4.7642029 2,4.5 2,4 2.3052366,3.5236342 2.7400388,3.427612 3.4340805,3.274339 3.9146482,3.7586271 4.1100582,4.0463305 5.1289687,5.5464784 4.7496137,9.1495023 4.5740968,10.741748 4.4778765,11.614635 4.2844847,12.982713 3.7786017,13.636466 3.0393768,14.591768 2.0558786,12.002907 2,11.5 z"
         style="fill:url(#linearGradient19638);stroke:none;stroke-width:1px;stroke-linecap:butt;stroke-linejoin:miter;stroke-opacity:1;fill-opacity:1" />
      <path
         sodipodi:nodetypes="ccccc"
         transform="translate(0,-8)"
         id="path19568"
         d="m 7.5,10 c -4.9264746,2.756282 2.955806,3.522097 7.5,2 l -4,-4 0,2 -3.5,0 z"
         style="fill:url(#linearGradient22300);stroke:none;stroke-width:1px;stroke-linecap:butt;stroke-linejoin:miter;stroke-opacity:1;fill-opacity:1" />
    </g>
    <g
       id="skip-arrow">
      <path
         sodipodi:nodetypes="cccccccc"
         id="path13783-3-8"
         d="m 4.5,-4.5 6,0 0,13 3,0 -6,6 -6,-6 3,0 0,-13 z"
         style="fill:url(#linearGradient19628);fill-opacity:1;fill-rule:evenodd;stroke:#204a87;stroke-width:1;stroke-linecap:round;stroke-linejoin:round;stroke-miterlimit:4;stroke-opacity:1;stroke-dasharray:none;stroke-dashoffset:0" />
      <path
         sodipodi:nodetypes="cccccccc"
         id="path13783-5-7-3"
         d="m 5.5,-3.5 4,0 0,13 1.5,0 L 7.5,13 4,9.5 l 1.5,0 0,-13 z"
         style="fill:none;stroke:#ffffff;stroke-opacity:0.18823529" />
      <path
         style="fill:url(#linearGradient19636);fill-opacity:1;stroke:none"
         d="M 5,-2.5 C 5,-3 5.2936905,-3.5149404 5.8232233,-3.4611676 6.9640388,-3.3453204 7.8692177,1.7617947 7.8696383,7.081299 7.8698453,9.6989932 7.6325825,10.823223 7,13 L 3,9 5,9 5,-2.5 z"
         id="path19615"
         sodipodi:nodetypes="csscccc" />
    </g>
    <g
       id="boxes">
      <g
         id="g6971">
        <rect
           style="fill:url(#linearGradient6969);fill-opacity:1;stroke:#555753;stroke-width:1;stroke-linecap:round;stroke-linejoin:round;stroke-miterlimit:4;stroke-opacity:1;stroke-dasharray:none;stroke-dashoffset:0"
           id="rect2895-6-1-8"
           width="9"
           height="6"
           x="13.5"
           y="8.5"
           rx="2"
           ry="2" />
        <rect
           style="fill:none;stroke:#ffffff;stroke-opacity:0.23529412"
           id="rect3713-8-0-0"
           width="7"
           height="4"
           x="14.5"
           y="9.5"
           rx="1"
           ry="1" />
      </g>
      <g
         id="g19610">
        <rect
           style="fill:url(#linearGradient19598);stroke:#555753;stroke-width:1;stroke-linecap:round;stroke-linejoin:round;stroke-miterlimit:4;stroke-opacity:1;stroke-dasharray:none;stroke-dashoffset:0;fill-opacity:1"
           id="rect2895-6-1-5"
           width="9"
           height="9"
           x="13.5"
           y="-0.5"
           rx="2"
           ry="2" />
        <rect
           style="fill:none;stroke:#ffffff;stroke-opacity:0.23529412"
           id="rect3713-8-0-9"
           width="7"
           height="7"
           x="14.5"
           y="0.5"
           rx="1"
           ry="1" />
        <rect
           style="fill:url(#linearGradient19608);fill-opacity:1;fill-rule:evenodd;stroke:none"
           id="rect19600"
           width="5"
           height="2"
           x="15.5"
           y="11"
           transform="translate(0,-8)"
           rx="1"
           ry="0.984375" />
      </g>
      <g
         id="g6986">
        <rect
           style="fill:url(#linearGradient6950);fill-opacity:1;stroke:#555753;stroke-width:1;stroke-linecap:round;stroke-linejoin:round;stroke-miterlimit:4;stroke-opacity:1;stroke-dasharray:none;stroke-dashoffset:0"
           id="rect2895-6-1"
           width="9"
           height="6"
           x="13.5"
           y="-6.5"
           rx="2"
           ry="2" />
        <rect
           style="fill:none;stroke:#ffffff;stroke-opacity:0.23529412"
           id="rect3713-8-0"
           width="7"
           height="4"
           x="14.5"
           y="-5.5"
           rx="1"
           ry="1" />
      </g>
    </g>
    <g
       id="exit-arrow">
      <path
         sodipodi:nodetypes="ccccccccccc"
         id="path13783-3"
         d="m 15.5,0.5 0,6 -5,0 0,2 3,0 -6,6 -6,-6 3,0 0,-3.5 C 4.5,2.5 6.5,0.5 9,0.5 l 6.5,0 z"
         style="fill:url(#linearGradient4301);fill-opacity:1;fill-rule:evenodd;stroke:#5c3566;stroke-width:1;stroke-linecap:round;stroke-linejoin:round;stroke-miterlimit:4;stroke-opacity:1;stroke-dasharray:none;stroke-dashoffset:0" />
      <path
         sodipodi:nodetypes="cccccccccccc"
         id="path13783-5-7"
         d="m 14.5,1.5 0,4 -4,0 c -0.5,0 -1,0.5 -1,1 l 0,3 1.5,0 L 7.5,13 4,9.5 5.5,9.5 5.5,5 C 5.5,3 7,1.5 9,1.5 l 5.5,0 z"
         style="fill:none;stroke:#ffffff;stroke-opacity:0.19607843000000000;fill-opacity:1" />
      <path
         sodipodi:nodetypes="ccssssssscscc"
         transform="translate(0,-8)"
         id="path5775"
         d="m 3,17 4,4 C 7.522097,19.367417 7.7711374,18.480908 7.7046955,17.621939 7.6368873,16.745307 7.4622004,15.840071 7.4033784,15.188039 7.292893,13.963314 7.2859183,13.413837 7.5138635,12.69064 7.7252404,12.02001 8.4401649,11.452716 9.2209703,11.226601 10.029108,10.992571 11.281114,11.028841 12.265164,10.850951 13.243067,10.674173 14.2513,10.314991 14.229203,9.9254757 14.200884,9.4262783 13.287262,9.0441942 12.817591,9.0441942 11.817593,9.0441942 10,9 9,9 7,9 5,10.5 5,13 c 0,1 0,4 0,4 l -2,0 z"
         style="fill:url(#radialGradient22298);stroke:none;fill-opacity:1" />
    </g>
  </g>
</svg>
